<svg width="50" height="50" viewBox="0 0 50 50" fill="none" xmlns="http://www.w3.org/2000/svg">
<path d="M26 2C13.3008 2 8.39844 10.1992 8 18V24.6875C7.30078 25.4883 7 26.5117 7 27.8125C7 30.1133 8.48828 32 10.6875 32.5C13.2891 39.3008 17.6016 48 25 48C29 48 32.1016 45.3984 34.5 42H31.9062C29.707 44.6992 27.4062 46 24.9062 46C20.1055 46 15.9883 41.1875 12.1875 31.1875L12 30.5938L11.4062 30.5C10.1055 30.5 9 29.3125 9 27.8125C9 27.2266 9.10938 26.7344 9.28125 26.3438L12.5625 27.9062C12.875 28.0586 13.2422 28.0391 13.5352 27.8516C13.8242 27.668 14.0039 27.3477 14 27V19.8438C14.6914 19.7969 16.5117 19.7266 19.5312 19C22.707 18.2383 26.3711 16.875 28.9062 14.4375C31.5898 17.9727 35.0586 19.3438 36 19.6562V27C35.9961 27.3477 36.1758 27.668 36.4648 27.8516C36.7578 28.0391 37.125 28.0586 37.4375 27.9062L39 27.125V30.4375C38.8398 30.4727 38.668 30.5 38.5 30.5L37.9062 30.5938L37.6875 31.1875C36.6875 33.7891 35.6875 36.0078 34.6875 37.9062C35.8867 37.707 37.0117 37.2109 37.8125 36.3125C38.4141 35.0117 38.9062 33.6992 39.4062 32.5C39.6055 32.4492 39.8008 32.3672 40 32.2812V33C40 36.3711 37.3711 39 34 39H29.8125C29.3945 37.8438 28.293 37 27 37H25C23.3555 37 22 38.3555 22 40C22 41.6445 23.3555 43 25 43H27C28.293 43 29.3945 42.1562 29.8125 41H34C38.4297 41 42 37.4297 42 33V32C43.6445 32 45 30.6445 45 29V25C45 23.3555 43.6445 22 42 22V18C41.6016 9.19922 36.707 4.19922 28.4062 4L26.4062 2H26ZM25.5938 4L27.5938 6H28C38 6 39.8008 13.5 40 18V22C39.9688 22 39.9375 22 39.9062 22C39.3906 22.0469 38.9961 22.4805 39 23V24.875L38 25.375V19C38.0039 18.5508 37.7109 18.1562 37.2812 18.0312C37.2812 18.0312 32.2969 16.4648 29.8438 12.4688C29.6445 12.1484 29.2812 11.9688 28.9062 12C28.6367 12.0273 28.3867 12.1602 28.2188 12.375C26.2266 14.7656 22.4336 16.2617 19.0938 17.0625C15.7539 17.8633 12.9375 18 12.9375 18C12.4102 18.0312 12 18.4727 12 19V25.4062L9.90625 24.4062V18C10.5078 7.89844 18.293 4.10156 25.5938 4ZM41 24H42C42.5547 24 43 24.4453 43 25V29C43 29.5547 42.5547 30 42 30H41.1875C41.125 29.9844 41.0625 29.9727 41 29.9688V25.625C41.0156 25.5195 41.0156 25.418 41 25.3125V24ZM25 39H27C27.5547 39 28 39.4453 28 40C28 40.5547 27.5547 41 27 41H25C24.4453 41 24 40.5547 24 40C24 39.4453 24.4453 39 25 39Z" fill="#5FCF6C"/>
</svg>
