<svg width="364" height="59" viewBox="0 0 364 59" fill="none" xmlns="http://www.w3.org/2000/svg">
<path fill-rule="evenodd" clip-rule="evenodd" d="M12.5141 35.9345C11.5115 33.4142 8.82859 31.4089 5.11596 30.081C4.81787 29.9726 4.65528 29.9455 4.57398 29.9997C4.46559 30.0268 4.41138 30.1623 4.35718 30.4062L3.6797 33.6039C3.5442 34.2272 3.5442 34.2543 3.8965 34.4169C2.21633 37.8314 -0.00585322 43.3327 2.97508 45.4193C4.54685 46.5846 7.44649 46.1509 9.83124 44.7689C10.5629 44.3082 10.8881 44.0643 11.3488 43.441C13.0561 41.0021 13.4084 38.1295 12.5412 35.9074L12.5141 35.9345ZM10.9152 40.2162C9.77702 41.0563 5.82056 42.4384 4.19459 41.0021C3.21901 40.1349 3.05641 38.265 4.65528 34.7963C7.63622 36.1242 9.77705 37.5334 10.9423 39.8639C11.0236 40.0536 11.0508 40.1349 10.8882 40.2433L10.9152 40.2162Z" fill="#0090B2"/>
<path fill-rule="evenodd" clip-rule="evenodd" d="M17.7444 6.01668L16.4978 10.2713C18.2864 13.9297 19.4516 26.3142 20.4001 33.8478C21.7551 44.5792 26.2537 46.2323 34.6816 46.4491C42.0526 46.6388 54.7893 45.5276 59.613 40.8936C63.5966 44.5792 66.5505 43.7933 71.0761 42.2486C77.8781 39.9452 83.5689 35.5009 91.3736 38.0753L93.7312 33.7394C94.1377 32.9806 93.6228 33.0619 92.8098 33.1703C85.222 34.2543 77.7426 32.5199 72.3769 29.7287C67.7429 27.3168 64.5994 29.7287 62.7024 34.3085C62.1875 35.5551 62.9734 35.5009 63.5696 35.1215C68.3933 32.2218 73.6777 34.3627 78.9079 35.5822C76.5773 36.9642 63.2986 42.0589 60.7241 39.1051C60.968 38.2108 61.2661 37.3978 61.4829 36.3138C61.5642 35.826 60.8596 34.5795 60.4261 35.799C58.7459 40.6227 45.6298 42.2757 38.2316 42.2757C32.7846 42.2757 28.6926 41.3815 26.3349 39.5658C23.7876 37.5604 22.6494 34.1459 22.0532 29.9997C20.9151 21.9241 20.5085 12.0328 18.449 6.01668C18.2864 5.55599 17.9341 5.28499 17.7173 6.01668" fill="#0090B2"/>
<path fill-rule="evenodd" clip-rule="evenodd" d="M58.0413 7.80527C54.8978 9.10604 40.7789 13.6587 38.0419 14.8511C37.8522 14.9324 37.7709 14.9595 37.6896 15.2034C37.5812 15.5286 37.0934 16.8294 36.9308 17.3985C36.8766 17.6423 37.0934 17.6152 37.2831 17.561C37.6625 17.3984 38.3129 17.0462 38.7465 16.8836C41.0229 16.0977 54.3557 11.5992 57.147 10.4881C57.3367 10.4068 57.4722 10.3255 57.5535 10.1358C57.7161 9.75643 58.1226 8.61823 58.2852 8.07624C58.3394 7.83234 58.231 7.75104 58.0413 7.85944" fill="#0090B2"/>
<path fill-rule="evenodd" clip-rule="evenodd" d="M58.1223 51.1102C57.5803 51.9232 56.9299 53.1155 56.3066 54.0911C55.3852 53.4678 54.1929 52.7361 53.3799 52.2212C52.9463 51.9231 52.7566 51.9773 52.4856 52.3838C51.9979 53.1155 51.2933 54.1995 50.7784 55.1209C50.5887 55.4461 50.6429 55.7442 51.1035 56.0152C51.9707 56.5301 53.3528 57.316 54.1928 57.7495C54.4638 57.885 54.6806 57.8038 54.8703 57.5328C55.331 56.9095 55.8188 55.9881 56.5234 54.8228C57.7429 55.5545 58.7456 56.1778 59.7211 56.6656C59.9921 56.8011 60.1277 56.774 60.3445 56.5301C60.8323 55.9339 61.6994 54.5518 62.0517 53.8743C62.2956 53.4137 62.2414 53.2239 61.8349 52.98C61.2116 52.5735 59.6398 51.5709 58.8539 51.0831C58.4746 50.8392 58.3391 50.8934 58.1494 51.1373" fill="#0090B2"/>
<path fill-rule="evenodd" clip-rule="evenodd" d="M104.571 5.61023C104.435 5.63733 104.3 5.82699 104.246 6.12508L103.595 9.45834C103.406 10.3797 103.46 10.5152 103.595 11.3011C103.975 13.5232 104.49 15.7183 104.923 17.8863C106.007 23.1165 107.335 29.6745 108.257 34.5253C108.934 38.1295 109.395 41.815 109.557 45.0399C109.557 45.6632 109.937 45.6361 110.099 45.1483C110.668 43.3597 110.912 41.4628 110.912 39.4574C110.912 37.5062 110.289 33.5497 109.639 30.4062C108.771 26.0703 107.579 19.9458 106.766 15.9893C106.062 12.6289 105.384 9.26862 104.978 6.04379C104.923 5.66439 104.761 5.556 104.625 5.5831" fill="#0090B2"/>
<path fill-rule="evenodd" clip-rule="evenodd" d="M7.44655 16.9378C6.90456 17.7507 6.25418 18.9431 5.63089 19.9187C4.70951 19.2954 3.51713 18.5637 2.70415 18.0488C2.27056 17.7507 2.08086 17.8049 1.80986 18.2114C1.32207 18.9431 0.617473 20.0271 0.102584 20.9485C-0.087112 21.2737 -0.0329264 21.5718 0.427764 21.8427C1.29495 22.3576 2.67706 23.1435 3.51714 23.5771C3.78813 23.7126 4.00493 23.6313 4.19463 23.3603C4.65532 22.737 5.14307 21.8156 5.84765 20.6504C7.06713 21.382 8.06979 22.0054 9.04537 22.4931C9.31636 22.6286 9.45189 22.6015 9.66868 22.3576C10.1565 21.7615 11.0237 20.3794 11.376 19.7019C11.6199 19.2412 11.5657 19.0515 11.1592 18.8076C10.5359 18.4011 8.96413 17.3985 8.17825 16.9107C7.79885 16.6668 7.66333 16.7209 7.47363 16.9648" fill="#0090B2"/>
<path d="M99.2592 24.8237C98.4191 20.3252 97.6333 16.5584 96.9829 12.7374C97.1455 12.5477 97.2539 12.4393 97.4706 12.1412C98.4191 10.8404 98.7172 10.6778 97.9855 9.75644C96.9287 8.64536 96.3054 7.39875 95.7363 5.82698C95.5195 5.36629 95.4382 5.23083 95.2756 5.23083C95.0317 5.33923 94.6523 5.8541 94.0832 6.85678C93.0805 8.45564 93.0534 8.50983 93.4057 9.51251C93.7851 10.3797 94.1917 11.1385 94.7337 11.8973C95.1401 15.366 95.9531 19.4309 96.9287 24.4443C97.9856 29.6203 98.8257 34.7421 99.205 39.5929C97.2268 41.4899 92.4844 42.628 90.0726 42.0589C88.5279 41.7066 87.0374 40.6227 87.3626 36.6662H86.2786C85.9263 38.536 85.9534 41.0292 86.0618 41.9506C86.5496 45.4193 88.4737 46.3678 91.4004 46.3407C93.7851 46.2865 97.0642 45.4735 99.4761 43.143C100.479 42.0861 100.75 38.6986 100.75 36.3952C100.75 33.062 100.045 29.3493 99.2322 24.7966L99.2592 24.8237Z" fill="#0090B2"/>
<path fill-rule="evenodd" clip-rule="evenodd" d="M149.15 0.732319C146.006 2.03309 138.906 4.87851 136.169 6.04379C135.98 6.12508 135.898 6.1522 135.817 6.39609C135.709 6.72128 135.383 7.80525 135.221 8.37434C135.167 8.61823 135.356 8.59113 135.573 8.53693C135.952 8.37433 136.44 8.10335 136.874 7.91365C139.042 7.01937 145.627 4.28233 148.418 3.17125C148.608 3.08995 148.743 3.00868 148.852 2.81899C149.014 2.43959 149.285 1.51821 149.421 0.949119C149.475 0.705224 149.367 0.623921 149.177 0.732319" fill="#0090B2"/>
<path fill-rule="evenodd" clip-rule="evenodd" d="M164.379 12.0328L164.542 11.4366C164.759 9.48543 164.244 7.85946 164.081 7.37167C163.539 5.827 162.781 5.28499 161.859 5.44759C160.315 5.71858 158.472 7.85948 157.74 10.3526C157.415 11.4637 157.632 12.1141 158.228 12.4935C159.122 13.0355 160.396 13.469 161.913 13.8484C160.152 16.7752 154.488 20.5962 153.458 21.1924C152.239 21.897 152.456 22.6828 153.973 22.0054C159.691 19.4309 162.483 16.6939 163.756 14.282C164.136 14.3633 164.488 14.4717 164.894 14.5801C165.572 14.7698 165.436 14.824 165.789 13.7671C165.951 13.2522 166.087 12.8999 166.141 12.6561L164.434 12.0599L164.379 12.0328ZM163.024 11.7076C163.024 11.7076 162.239 11.4095 162.103 11.3282C161.832 11.1927 161.073 10.8946 159.691 10.3797C159.149 10.2713 159.691 9.43121 159.691 9.43121C159.881 9.05182 160.233 8.56404 160.613 8.21174L161.128 7.85944C161.453 7.75104 161.94 7.64267 162.157 7.96786C162.51 8.37435 163.052 9.18733 163.133 10.6778C163.133 11.1114 163.079 11.6805 163.052 11.7076H163.024Z" fill="#0090B2"/>
<path fill-rule="evenodd" clip-rule="evenodd" d="M224.134 13.3877L224.296 12.7916C224.513 10.8404 223.998 9.21442 223.836 8.72663C223.294 7.18197 222.535 6.63996 221.614 6.80256C220.042 7.07355 218.226 9.21444 217.467 11.7076C217.142 12.8187 217.359 13.469 217.955 13.8484C218.822 14.3904 220.123 14.824 221.641 15.2034C219.879 18.1572 214.215 21.9512 213.186 22.5474C211.966 23.252 212.183 24.0378 213.701 23.3603C219.419 20.7859 222.21 18.0488 223.483 15.637C223.863 15.7183 224.215 15.8267 224.622 15.9351C225.299 16.1248 225.164 16.179 225.516 15.1221C225.678 14.6072 225.814 14.2549 225.868 14.011L224.161 13.4148L224.134 13.3877ZM222.779 13.0626C222.779 13.0626 221.993 12.7645 221.858 12.6832C221.587 12.5477 220.828 12.2496 219.446 11.7347C218.931 11.6534 219.446 10.7862 219.446 10.7862C219.662 10.4068 219.988 9.9461 220.367 9.56671L220.882 9.24153C221.207 9.13313 221.695 9.02473 221.912 9.32283C222.264 9.72932 222.806 10.5694 222.86 12.0328C222.86 12.4664 222.806 13.0355 222.779 13.0626Z" fill="#0090B2"/>
<path fill-rule="evenodd" clip-rule="evenodd" d="M132.565 16.0164C132.023 16.8294 131.373 18.0218 130.749 18.9973C129.828 18.374 128.636 17.6424 127.823 17.1275C127.389 16.8294 127.199 16.8836 126.928 17.2901C126.441 18.0218 125.736 19.1057 125.221 20.0271C125.032 20.3523 125.086 20.6504 125.546 20.9214C126.414 21.4363 127.796 22.2222 128.636 22.6558C128.907 22.7913 129.123 22.71 129.313 22.439C129.774 21.8157 130.262 20.8943 130.966 19.729C132.186 20.4607 133.188 21.084 134.164 21.5718C134.435 21.7073 134.571 21.6802 134.787 21.4363C135.275 20.8401 136.142 19.4852 136.495 18.7806C136.739 18.3199 136.684 18.1302 136.278 17.8863C135.654 17.4798 134.083 16.4771 133.297 15.9893C132.917 15.7454 132.782 15.7996 132.592 16.0435" fill="#0090B2"/>
<path fill-rule="evenodd" clip-rule="evenodd" d="M180.043 17.6966C179.474 18.6179 178.688 20.0271 178.254 20.8943C178.064 21.2466 178.092 21.4905 178.471 21.6802C179.23 22.0867 180.53 22.7913 181.479 23.3062C181.858 23.523 182.102 23.4958 182.292 23.1977C182.807 22.3577 183.566 21.0569 184.053 20.2168C184.216 19.9187 184.27 19.7019 183.999 19.5122C183.105 18.9702 181.669 18.1031 180.774 17.5882C180.395 17.3714 180.232 17.4256 180.07 17.6966" fill="#0090B2"/>
<path fill-rule="evenodd" clip-rule="evenodd" d="M136.657 51.1373C133.459 52.3297 128.392 54.0912 125.6 55.1752C125.411 55.2565 125.329 55.2835 125.248 55.5003C125.14 55.8255 124.733 56.8824 124.571 57.4515C124.489 57.6954 124.706 57.6954 124.896 57.6141C125.275 57.4786 125.79 57.2075 126.224 57.0449C128.419 56.232 132.971 54.5518 135.817 53.5492C136.007 53.4679 136.169 53.4137 136.25 53.1969C136.44 52.8175 136.738 51.9232 136.928 51.3541C137.009 51.1373 136.874 51.0289 136.684 51.1102" fill="#0090B2"/>
<path fill-rule="evenodd" clip-rule="evenodd" d="M169.501 52.411C168.932 53.3323 168.146 54.7415 167.713 55.6087C167.55 55.961 167.55 56.2049 167.93 56.3946C168.688 56.8011 169.989 57.5057 170.938 58.0206C171.317 58.2374 171.561 58.1831 171.751 57.9121C172.266 57.0721 173.024 55.7713 173.512 54.9312C173.702 54.6331 173.729 54.4164 173.458 54.2267C172.564 53.6847 171.127 52.8174 170.233 52.3025C169.854 52.0857 169.718 52.14 169.528 52.411" fill="#0090B2"/>
<path fill-rule="evenodd" clip-rule="evenodd" d="M234.242 30.5959C233.917 29.539 233.483 29.81 233.348 30.2436L232.291 33.6852C232.101 34.3085 232.128 34.3085 232.291 34.6608C232.778 36.0429 233.077 37.6417 233.131 39.5929C231.152 39.7284 228.795 38.6986 227.548 37.7772C227.765 37.0998 228.578 34.8776 228.741 33.4955C228.822 32.7909 228.334 32.0051 228.009 32.791C227.25 34.6337 226.139 37.6418 224.459 38.9696C221.884 41.0021 218.253 41.3002 215.841 41.4357C216.573 39.8639 217.359 37.181 217.386 35.9345C217.386 35.2299 216.681 34.715 216.492 35.5822C215.787 38.2921 214.676 39.2948 212.535 40.2162C207.928 42.1673 202.617 42.7635 198.254 42.8448C188.335 42.9803 184.406 36.7204 183.539 28.1299C183.403 27.1001 183.051 28.0756 183.051 28.0756C182.59 29.5661 181.994 30.9753 182.048 32.1676C182.13 33.2787 182.509 35.1215 182.915 36.91C181.75 44.1185 178.119 40.6769 175.382 39.4574C174.515 39.078 173.81 38.3463 172.428 39.2948C169.474 41.3273 166.087 42.8177 161.561 42.7635C154.542 42.7093 151.128 39.5929 149.231 34.2272C147.117 28.2112 145.166 19.1599 144.326 12.1683C144.272 11.6805 144.109 11.5179 143.947 11.5179C143.757 11.5179 143.54 11.7889 143.486 12.0328L142.619 15.0679C143.269 20.7046 144.868 27.2356 146.25 33.3059C147.632 39.4303 149.123 45.6361 148.933 48.7796C148.824 50.514 147.361 50.6224 146.548 50.6224C144.461 50.6224 142.022 47.9124 141.209 46.0697C138.31 39.5387 137.659 33.0077 136.44 26.4768C136.277 25.6367 135.844 25.5283 135.708 26.2058L134.977 29.3493L135.41 33.3871C133.052 34.8776 128.852 36.7746 127.009 38.5902C125.573 39.9994 124.299 42.4654 123.812 44.2811C123.513 45.338 123.785 46.0425 125.546 46.2864C128.5 46.72 135.41 46.8285 137.253 42.6009C137.985 45.2838 139.34 49.9449 141.182 52.4381C143.052 54.9583 146.331 56.1236 148.391 54.7144C150.586 53.2781 151.101 46.5575 150.667 43.3597C154.407 48.8067 166.114 48.1292 171.317 44.0914C171.967 43.5765 172.591 43.1429 173.62 43.6307C176.303 44.9044 180.016 47.1808 181.642 45.0941C182.915 43.4682 183.214 41.3815 183.918 39.4845C188.092 50.4327 202.265 47.9395 212.102 45.0399C217.169 45.88 222.67 45.7716 225.651 40.975C226.491 43.5223 232.345 45.3651 233.429 43.4139C235.624 39.5658 235.624 34.8234 234.323 30.6501L234.242 30.5959ZM126.576 41.815C127.877 40.1349 133.459 37.2624 135.844 36.0429L136.819 41.1375C134.055 41.8692 129.611 42.5196 126.576 41.815Z" fill="#0090B2"/>
<path d="M328.494 12.8729C328.873 12.7103 329.361 12.4393 329.795 12.2496C331.962 11.3553 340.201 7.96786 342.992 6.85678C343.182 6.77548 343.317 6.69417 343.398 6.50448C343.561 6.12508 343.832 5.20374 343.995 4.63465C344.049 4.39076 343.94 4.30945 343.751 4.41785C340.607 5.71862 331.881 9.21443 329.117 10.4068C328.927 10.4881 328.846 10.5152 328.765 10.7591C328.656 11.0843 328.304 12.1683 328.169 12.7374C328.114 12.9813 328.304 12.9542 328.521 12.8729H328.494Z" fill="#0090B2"/>
<path d="M305.025 12.8729C305.405 12.7103 305.892 12.4393 306.326 12.2496C308.494 11.3553 316.732 7.96786 319.523 6.85678C319.713 6.77548 319.849 6.69417 319.93 6.50448C320.092 6.12508 320.363 5.20374 320.526 4.63465C320.58 4.39076 320.472 4.30945 320.282 4.41785C317.139 5.71862 308.413 9.21443 305.649 10.4068C305.459 10.4881 305.378 10.5152 305.296 10.7591C305.188 11.0843 304.836 12.1683 304.7 12.7374C304.646 12.9813 304.836 12.9542 305.052 12.8729H305.025Z" fill="#0090B2"/>
<path d="M281.937 12.8729C282.316 12.7103 282.804 12.4393 283.237 12.2496C285.405 11.3553 293.644 7.96786 296.435 6.85678C296.624 6.77548 296.76 6.69417 296.841 6.50448C297.004 6.12508 297.275 5.20374 297.437 4.63465C297.492 4.39076 297.383 4.30945 297.194 4.41785C294.05 5.71862 285.324 9.21443 282.56 10.4068C282.37 10.4881 282.289 10.5152 282.208 10.7591C282.099 11.0843 281.747 12.1683 281.611 12.7374C281.557 12.9813 281.747 12.9542 281.964 12.8729H281.937Z" fill="#0090B2"/>
<path d="M361.121 28.0486C360.2 26.0161 359.143 25.0947 358.032 25.0676C357.192 25.0676 356.325 25.5825 355.485 26.5852C353.262 29.2138 352.449 33.2787 350.471 36.1784C349.414 37.7502 347.084 39.1322 344.076 39.4574C343.859 38.536 340.77 28.6176 336.84 32.7097C334.726 34.715 334.13 37.8856 334.13 40.0536C334.13 45.6632 340.553 44.525 342.531 44.0372C338.493 55.8797 327.111 56.9907 318.25 55.6358C316.624 55.3919 316.57 56.5029 317.843 56.8823C330.553 60.4323 340.526 59.782 344.482 43.6307C348.52 42.9803 351.203 39.891 352.422 36.3138C353.56 37.5333 361.907 40.2433 362.639 38.1566C363.858 34.6066 361.988 29.9184 361.121 28.0214V28.0486ZM336.054 38.3734C336.759 36.8288 337.436 36.2055 338.06 36.1784C339.171 36.1242 340.255 37.9128 341.257 39.9181C339.008 39.9452 336.894 39.8639 336.054 38.3734ZM354.102 32.7097C354.915 30.894 355.999 29.6474 357.11 29.6474C358.222 29.6474 359.414 30.9482 360.417 34.2814C357.923 34.5253 356.081 33.4684 354.075 32.7097H354.102Z" fill="#0090B2"/>
<path d="M333.128 27.7233C333.128 27.8588 333.209 28.0215 333.372 27.9131C334.916 26.9917 339.577 25.7993 341.583 25.3386C341.718 25.3115 342.369 23.8481 342.477 23.6313C342.613 23.3332 342.477 23.279 342.26 23.3332C341.122 23.6313 339.984 23.8482 338.575 23.8211C336.813 23.7669 334.158 21.897 334.158 21.5447C334.158 21.1924 336.244 20.2981 336.705 20.3523C338.06 20.4607 338.25 21.8428 338.602 21.8428C339.035 21.8428 339.713 20.2439 339.713 19.8103C339.713 19.3496 338.602 18.1302 337.708 18.1302C336.271 18.1302 333.236 20.6775 332.504 22.2493C332.206 22.8726 332.315 23.5771 332.965 24.0378C333.453 24.3901 334.347 24.9592 335.242 25.4199C334.862 25.5825 333.995 25.9348 333.48 26.2871C333.345 26.6936 333.155 27.344 333.101 27.7505L333.128 27.7233Z" fill="#0090B2"/>
<path d="M254.35 8.32015C253.97 8.07626 253.835 8.13043 253.645 8.37432C253.13 9.18731 252.453 10.3797 251.83 11.3553C250.908 10.732 249.716 10.0003 248.903 9.48541C248.469 9.18732 248.28 9.24151 248.009 9.648C247.521 10.3797 246.816 11.4637 246.301 12.3851C246.112 12.7103 246.166 13.0083 246.626 13.2793C247.494 13.7942 248.876 14.5801 249.716 15.0137C249.987 15.1492 250.204 15.0679 250.393 14.7969C250.854 14.1736 251.342 13.2522 252.046 12.087C253.266 12.8187 254.269 13.4419 255.244 13.9297C255.515 14.0652 255.651 14.0381 255.867 13.7942C256.355 13.198 257.222 11.816 257.575 11.1385C257.819 10.6778 257.764 10.4881 257.358 10.2442C256.735 9.8377 255.163 8.83503 254.377 8.34724L254.35 8.32015Z" fill="#0090B2"/>
<path d="M328.629 35.4467C328.954 34.5795 329.225 33.7123 329.442 32.791C329.767 31.4902 328.873 31.1108 328.385 32.3303C327.979 33.333 326.759 35.9345 325.973 37.5334C325.513 38.4276 324.889 38.8612 323.914 38.5902C322.45 38.1837 321.312 37.6959 320.174 37.1268C320.879 35.7177 321.475 34.2001 321.827 33.2516C322.234 32.1135 321.231 32.0322 320.824 32.9806C320.012 34.8776 318.873 36.6662 317.22 37.5062C315.784 38.2379 312.397 38.8883 309.172 38.9154C310.256 37.0998 310.906 34.9047 311.123 33.5768C311.285 32.5741 310.662 32.4386 310.31 33.36C309.741 34.7963 308.603 36.5036 307.166 37.3708C305.188 38.5631 302.803 39.5116 300.364 39.3219C295.378 38.9425 292.885 36.2326 292.18 33.4955C292.18 33.4413 292.18 33.3872 292.235 33.3059C292.614 32.1135 291.665 31.7341 291.232 32.8993C290.88 33.8478 289.552 36.7746 288.685 38.2379C288.224 39.0238 287.411 39.5116 286.489 39.2948C285.162 38.9696 284.186 38.5361 283.21 38.0483C283.861 36.7475 284.403 35.3925 284.728 34.4982C285.135 33.36 284.132 33.2787 283.725 34.2272C282.912 36.1242 281.774 38.0483 280.121 38.8883C278.685 39.62 275.46 40.433 272.317 40.6227C273.4 38.7528 274.051 36.3952 274.268 35.0673C274.43 34.0917 273.78 33.9291 273.482 34.8505C272.344 38.6715 268.089 41.0021 264.539 40.2433C259.526 39.1593 259.092 35.6635 257.845 29.7829C257.032 25.989 256.409 21.9512 256.057 18.5638C256.003 18.1031 255.948 17.8321 255.84 17.8321C255.732 17.8321 255.596 18.076 255.488 18.5095C255.19 19.5122 254.892 20.5149 254.566 21.5176C254.404 22.1138 254.377 22.1951 254.431 22.71C254.539 23.4959 254.675 24.3901 254.783 25.2302C252.209 26.1787 249.011 28.0486 246.843 30.9753C245.678 32.5742 245.082 34.3898 244.512 36.7204C244.323 37.5334 244.269 37.9941 245.027 38.1296C245.949 38.3193 247.466 38.3734 248.821 38.3463C251.342 38.3192 252.751 37.6689 254.404 36.2597C255.054 35.6906 255.759 35.0944 256.355 34.4711C256.653 35.9345 256.951 37.3166 257.358 38.6173C258.658 42.7093 260.908 44.7147 264.376 44.7418C265.894 44.7418 267.33 44.3353 268.523 43.8205C270.853 44.0643 273.292 44.1998 275.406 43.9559C277.926 43.6578 279.2 43.1159 280.826 41.4357C281.91 42.33 283.292 43.0616 285.162 43.4952C286.11 43.712 287.031 43.2785 287.709 42.3842C288.468 41.4086 289.443 39.7555 290.392 37.7772C291.611 41.0834 293.942 43.5765 299.714 43.5765C301.611 43.5765 303.4 43.0616 304.863 42.4384C307.383 42.7094 310.066 42.7906 312.397 42.5197C314.754 42.2487 316.082 41.9506 317.6 40.5956C318.792 41.5983 320.282 42.4113 322.342 42.9804C323.345 43.2514 324.347 42.8719 325.025 41.9235C325.404 41.4357 325.729 40.8937 326.082 40.3788L327.274 38.3192L328.602 35.4467H328.629ZM247.385 33.5768C247.114 33.5497 247.249 33.4685 247.385 33.3059C249.309 31.165 252.29 29.2409 255.135 27.7776C255.352 29.1596 255.569 30.5417 255.813 31.978C255.867 32.249 255.894 32.4928 255.948 32.7638C253.238 33.6581 250.285 33.902 247.358 33.5768H247.385Z" fill="#0090B2"/>
<path fill-rule="evenodd" clip-rule="evenodd" d="M359.929 6.61288L360.091 6.01669C360.308 4.06553 359.793 2.43957 359.631 1.95178C359.089 0.40711 358.33 -0.134897 357.409 0.0276991C355.837 0.298694 354.021 2.43958 353.262 4.93273C352.937 6.04381 353.154 6.69418 353.75 7.07357C354.617 7.61556 355.918 8.04915 357.436 8.42854C355.674 11.3824 350.01 15.1763 348.981 15.7725C347.761 16.4771 347.978 17.2629 349.495 16.5855C355.213 14.011 358.005 11.274 359.278 8.86214C359.658 8.94344 360.01 9.05184 360.417 9.16024C361.094 9.34993 360.959 9.40413 361.311 8.34725C361.473 7.83236 361.609 7.48005 361.663 7.23616L359.956 6.63997L359.929 6.61288ZM358.574 6.2877C358.574 6.2877 357.788 5.98961 357.652 5.90831C357.381 5.77282 356.623 5.47471 355.241 4.95982C354.726 4.87852 355.241 4.01132 355.241 4.01132C355.457 3.63193 355.783 3.17125 356.162 2.79185L356.677 2.46667C357.002 2.35828 357.49 2.24987 357.707 2.54797C358.059 2.95446 358.601 3.79454 358.655 5.25791C358.655 5.6915 358.601 6.2606 358.574 6.2877Z" fill="#0090B2"/>
<path fill-rule="evenodd" clip-rule="evenodd" d="M80.4798 7.31746C77.3362 8.61824 70.2362 11.4637 67.4991 12.629C67.3094 12.7103 67.2281 12.7374 67.1468 12.9813C67.0384 13.3065 66.7132 14.3904 66.5506 14.9595C66.4964 15.2034 66.6861 15.1763 66.9029 15.1221C67.2823 14.9595 67.7701 14.6885 68.2037 14.4988C70.3717 13.6046 76.9569 10.8675 79.7481 9.75644C79.9378 9.67514 80.0732 9.59383 80.1816 9.40413C80.3442 9.02474 80.6153 8.10335 80.7508 7.53426C80.805 7.29037 80.6966 7.20906 80.5069 7.31746" fill="#0090B2"/>
</svg>
