<svg width="50" height="50" viewBox="0 0 50 50" fill="none" xmlns="http://www.w3.org/2000/svg">
<path d="M17.0918 3C15.394 3 14 4.40146 14 6.09961V16C14 17.6456 15.3601 19 17 19H22.3828L24.1055 22.4473C24.1885 22.6134 24.3162 22.7531 24.4742 22.8508C24.6322 22.9484 24.8143 23.0001 25 23.0001C25.1857 23.0001 25.3678 22.9484 25.5258 22.8508C25.6838 22.7531 25.8115 22.6134 25.8945 22.4473L27.6172 19H33.0918C34.7316 19 36.0918 17.6456 36.0918 16V6.09961C36.0918 4.40146 34.6978 3 33 3H17.0918ZM17.0918 5H33C33.6022 5 34.0918 5.48776 34.0918 6.09961V16C34.0918 16.6644 33.7519 17 33.0918 17H27C26.8143 17 26.6322 17.0517 26.4742 17.1493C26.3162 17.2469 26.1885 17.3866 26.1055 17.5527L25 19.7637L23.8945 17.5527C23.8115 17.3866 23.6838 17.2469 23.5258 17.1493C23.3678 17.0517 23.1857 17 23 17H17C16.3399 17 16 16.6644 16 16V6.09961C16 5.48776 16.4896 5 17.0918 5ZM14.0312 23C11.8655 23 10.1103 23.5422 8.875 24.5762C7.63974 25.6101 7 27.1286 7 28.75C7 29.378 7.14471 30.0174 7.27734 30.5645C7.33812 30.8152 7.35219 30.8415 7.40039 31.0137C7.17729 31.3705 7 31.8626 7 32.5C7 33.2917 7.21351 33.9713 7.66797 34.4258C7.87151 34.6293 8.09102 34.595 8.32031 34.6836C8.45196 35.2155 8.5865 35.7569 8.82031 36.1953C8.98161 36.4978 9.15428 36.7697 9.33789 37.0059C9.38011 37.0602 9.45847 37.101 9.5 37.1523V38.7031C9.36204 39.0011 9.07747 39.2899 8.48242 39.6055C7.84862 39.9416 6.97808 40.2623 6.07226 40.6816C5.16645 41.101 4.20946 41.626 3.42968 42.4648C2.64991 43.3037 2.09204 44.4736 2.00195 45.9395C1.99371 46.0756 2.0134 46.212 2.05983 46.3403C2.10625 46.4685 2.17843 46.586 2.27191 46.6853C2.36539 46.7846 2.47821 46.8638 2.60342 46.9179C2.72863 46.972 2.86359 47 3 47H24H27H47C47.1364 47 47.2714 46.972 47.3966 46.9179C47.5218 46.8638 47.6346 46.7846 47.7281 46.6853C47.8216 46.586 47.8937 46.4685 47.9402 46.3403C47.9866 46.212 48.0063 46.0756 47.998 45.9395C47.9059 44.4408 47.2496 43.246 46.3652 42.416C45.4809 41.5861 44.4094 41.0769 43.3828 40.6621C42.3562 40.2473 41.3596 39.9242 40.6309 39.582C39.9428 39.2589 39.6241 38.9556 39.5 38.6973V37.1504C39.5414 37.0991 39.6199 37.0582 39.6621 37.0039C39.8455 36.7678 40.0165 36.4976 40.1777 36.1953C40.4115 35.757 40.5478 35.2153 40.6797 34.6836C40.909 34.595 41.1285 34.6293 41.332 34.4258C41.7865 33.9713 42 33.2917 42 32.5C42 31.8626 41.8227 31.3705 41.5996 31.0137C41.6478 30.8415 41.6619 30.8152 41.7227 30.5645C41.8553 30.0174 42 29.378 42 28.75C42 27.6939 41.7287 26.5572 41.0215 25.6172C40.4312 24.8325 39.4408 24.3279 38.2832 24.1504L37.8906 23.4902C37.8022 23.341 37.6765 23.2174 37.5258 23.1314C37.3751 23.0455 37.2047 23.0002 37.0312 23C34.8655 23 33.1103 23.5422 31.875 24.5762C30.6397 25.6101 30 27.1286 30 28.75C30 29.378 30.1447 30.0174 30.2773 30.5645C30.3381 30.8152 30.3522 30.8415 30.4004 31.0137C30.1773 31.3705 30 31.8626 30 32.5C30 33.2917 30.2135 33.9713 30.668 34.4258C30.8715 34.6293 31.091 34.595 31.3203 34.6836C31.452 35.2155 31.5865 35.7569 31.8203 36.1953C31.9816 36.4978 32.1543 36.7697 32.3379 37.0059C32.3801 37.0602 32.4585 37.101 32.5 37.1523V38.7031C32.362 39.0011 32.0775 39.2899 31.4824 39.6055C30.8486 39.9416 29.9781 40.2623 29.0723 40.6816C28.1664 41.101 27.2095 41.626 26.4297 42.4648C25.6499 43.3037 25.092 44.4736 25.002 45.9395C25.0011 45.9499 25.0005 45.9603 25 45.9707C24.9995 45.9603 24.9989 45.9499 24.998 45.9395C24.9059 44.4408 24.2496 43.246 23.3652 42.416C22.4809 41.5861 21.4094 41.0769 20.3828 40.6621C19.3562 40.2473 18.3596 39.9242 17.6309 39.582C16.9428 39.2589 16.6241 38.9556 16.5 38.6973V37.1504C16.5414 37.0991 16.6199 37.0582 16.6621 37.0039C16.8455 36.7678 17.0165 36.4976 17.1777 36.1953C17.4115 35.757 17.5478 35.2153 17.6797 34.6836C17.909 34.595 18.1285 34.6293 18.332 34.4258C18.7865 33.9713 19 33.2917 19 32.5C19 31.8626 18.8227 31.3705 18.5996 31.0137C18.6478 30.8415 18.6619 30.8152 18.7227 30.5645C18.8553 30.0174 19 29.378 19 28.75C19 27.6939 18.7287 26.5572 18.0215 25.6172C17.4312 24.8325 16.4408 24.3279 15.2832 24.1504L14.8906 23.4902C14.8022 23.341 14.6765 23.2174 14.5258 23.1314C14.3751 23.0455 14.2047 23.0002 14.0312 23ZM13.5039 25.0703L13.7656 25.5098C13.8541 25.659 13.9798 25.7826 14.1304 25.8686C14.2811 25.9545 14.4515 25.9998 14.625 26C15.562 26 16.0476 26.3229 16.4219 26.8203C16.7961 27.3178 17 28.0561 17 28.75C17 28.997 16.8947 29.6076 16.7773 30.0918C16.66 30.576 16.5449 30.9551 16.5449 30.9551C16.4834 31.1557 16.4864 31.3706 16.5537 31.5693C16.621 31.768 16.7491 31.9406 16.9199 32.0625C16.933 32.0818 17 32.1726 17 32.5C17 32.9583 16.901 33.0287 16.918 33.0117C16.9349 32.9948 16.9583 33 16.875 33C16.6287 33 16.3911 33.0909 16.2076 33.2552C16.0242 33.4196 15.9078 33.6458 15.8809 33.8906C15.8393 34.2685 15.6438 34.8231 15.4141 35.2539C15.2992 35.4693 15.1757 35.6567 15.082 35.7773C14.9883 35.898 14.8741 35.946 15.043 35.8594C14.8793 35.9435 14.742 36.0712 14.6462 36.2283C14.5504 36.3854 14.4998 36.566 14.5 36.75V39C14.5003 39.1215 14.5229 39.242 14.5664 39.3555C14.9632 40.3963 15.8692 40.9652 16.7793 41.3926C17.6893 41.8199 18.6978 42.1378 19.6328 42.5156C20.5678 42.8934 21.4134 43.3282 21.9961 43.875C22.3357 44.1938 22.5727 44.5672 22.7461 45H4.42383C4.57941 44.6155 4.63192 44.1087 4.89453 43.8262C5.39444 43.2884 6.10617 42.8692 6.91211 42.4961C7.71804 42.123 8.60253 41.8046 9.41992 41.3711C10.2373 40.9376 11.057 40.3446 11.4336 39.3555C11.4771 39.242 11.4996 39.1215 11.5 39V36.75C11.5 36.5658 11.4491 36.3851 11.353 36.2279C11.2568 36.0708 11.1191 35.9432 10.9551 35.8594C11.1237 35.9457 11.0097 35.8978 10.916 35.7773C10.8223 35.6568 10.7008 35.4692 10.5859 35.2539C10.3563 34.8233 10.1603 34.2681 10.1191 33.8906C10.0922 33.6458 9.97583 33.4196 9.79238 33.2552C9.60893 33.0909 9.37129 33 9.125 33C9.04166 33 9.06508 32.9948 9.08203 33.0117C9.09898 33.0287 9 32.9583 9 32.5C9 32.1726 9.06702 32.0818 9.08008 32.0625C9.25085 31.9406 9.37896 31.768 9.44626 31.5693C9.51356 31.3706 9.51664 31.1557 9.45508 30.9551C9.45508 30.9551 9.34003 30.576 9.22265 30.0918C9.10528 29.6076 9 28.997 9 28.75C9 27.6214 9.37746 26.7649 10.1582 26.1113C10.8506 25.5318 11.9928 25.1591 13.5039 25.0703ZM36.5039 25.0703L36.7656 25.5098C36.8541 25.659 36.9798 25.7826 37.1304 25.8686C37.2811 25.9545 37.4515 25.9998 37.625 26C38.562 26 39.0476 26.3229 39.4219 26.8203C39.7961 27.3178 40 28.0561 40 28.75C40 28.997 39.8947 29.6076 39.7773 30.0918C39.66 30.576 39.5449 30.9551 39.5449 30.9551C39.4833 31.1557 39.4864 31.3706 39.5537 31.5693C39.621 31.768 39.7491 31.9406 39.9199 32.0625C39.933 32.0818 40 32.1726 40 32.5C40 32.9583 39.901 33.0287 39.918 33.0117C39.9349 32.9948 39.9583 33 39.875 33C39.6287 33 39.3911 33.0909 39.2076 33.2552C39.0242 33.4196 38.9078 33.6458 38.8809 33.8906C38.8393 34.2685 38.6438 34.8231 38.4141 35.2539C38.2992 35.4693 38.1757 35.6567 38.082 35.7773C37.9883 35.898 37.8741 35.946 38.043 35.8594C37.8793 35.9435 37.742 36.0712 37.6462 36.2283C37.5504 36.3854 37.4998 36.566 37.5 36.75V39C37.5003 39.1215 37.5229 39.242 37.5664 39.3555C37.9632 40.3963 38.8692 40.9652 39.7793 41.3926C40.6893 41.8199 41.6978 42.1378 42.6328 42.5156C43.5678 42.8934 44.4134 43.3282 44.9961 43.875C45.3357 44.1938 45.5727 44.5672 45.7461 45H27.4238C27.5794 44.6155 27.6319 44.1087 27.8945 43.8262C28.3944 43.2884 29.1062 42.8692 29.9121 42.4961C30.718 42.123 31.6025 41.8046 32.4199 41.3711C33.2373 40.9376 34.057 40.3446 34.4336 39.3555C34.4771 39.242 34.4996 39.1215 34.5 39V36.75C34.5 36.5658 34.4491 36.3851 34.353 36.2279C34.2568 36.0708 34.1191 35.9432 33.9551 35.8594C34.1237 35.9457 34.0097 35.8978 33.916 35.7773C33.8223 35.6568 33.7008 35.4692 33.5859 35.2539C33.3563 34.8233 33.1603 34.2681 33.1191 33.8906C33.0922 33.6458 32.9758 33.4196 32.7924 33.2552C32.6089 33.0909 32.3713 33 32.125 33C32.0417 33 32.0651 32.9948 32.082 33.0117C32.099 33.0287 32 32.9583 32 32.5C32 32.1726 32.067 32.0818 32.0801 32.0625C32.2509 31.9406 32.379 31.768 32.4463 31.5693C32.5136 31.3706 32.5166 31.1557 32.4551 30.9551C32.4551 30.9551 32.34 30.576 32.2227 30.0918C32.1053 29.6076 32 28.997 32 28.75C32 27.6214 32.3775 26.7649 33.1582 26.1113C33.8506 25.5318 34.9928 25.1591 36.5039 25.0703Z" fill="#5FCF6C"/>
</svg>
