<svg width="50" height="50" viewBox="0 0 50 50" fill="none" xmlns="http://www.w3.org/2000/svg">
<path d="M25 0C23.1562 0 21.6602 1.29297 21.2031 3H9C7.35547 3 6 4.35547 6 6V45C6 46.6445 7.35547 48 9 48H41C42.6445 48 44 46.6445 44 45V6C44 4.35547 42.6445 3 41 3H28.7969C28.3398 1.29297 26.8438 0 25 0ZM25 2C26.1172 2 27 2.88281 27 4C27 4.55078 27.4492 5 28 5H31V7H19V5H22C22.5508 5 23 4.55078 23 4C23 2.88281 23.8828 2 25 2ZM9 5H17V8C17 8.55078 17.4492 9 18 9H32C32.5508 9 33 8.55078 33 8V5H41C41.5664 5 42 5.43359 42 6V45C42 45.5664 41.5664 46 41 46H9C8.43359 46 8 45.5664 8 45V6C8 5.43359 8.43359 5 9 5ZM33 12C33 12 29.7383 15 30 15H32V17.0312C31.9961 17.3906 32.1836 17.7266 32.4961 17.9062C32.8086 18.0898 33.1914 18.0898 33.5039 17.9062C33.8164 17.7266 34.0039 17.3906 34 17.0312V15H36L33 12ZM14.9883 17.9883C14.582 17.9922 14.2188 18.2383 14.0625 18.6133C13.9102 18.9922 14 19.4219 14.293 19.707L15.5859 21L14.293 22.293C14.0312 22.543 13.9258 22.918 14.0195 23.2656C14.1094 23.6172 14.3828 23.8906 14.7344 23.9805C15.082 24.0742 15.457 23.9688 15.707 23.707L17 22.4141L18.293 23.707C18.543 23.9688 18.918 24.0742 19.2656 23.9805C19.6172 23.8906 19.8906 23.6172 19.9805 23.2656C20.0742 22.918 19.9688 22.543 19.707 22.293L18.4141 21L19.707 19.707C20.0039 19.418 20.0898 18.9805 19.9297 18.6016C19.7695 18.2187 19.3945 17.9766 18.9805 17.9883C18.7187 17.9961 18.4727 18.1055 18.293 18.293L17 19.5859L15.707 18.293C15.5195 18.0977 15.2617 17.9922 14.9883 17.9883ZM33 19C31.8945 19 31 19.8945 31 21C31 22.1055 31.8945 23 33 23C34.1055 23 35 22.1055 35 21C35 19.8945 34.1055 19 33 19ZM29.5469 22.2227C29.3555 22.2266 29.168 22.2852 29.0117 22.3906L19.0039 28.8633C18.6953 29.0547 18.5117 29.3984 18.5273 29.7617C18.543 30.125 18.7539 30.4492 19.0781 30.6133C19.4062 30.7734 19.793 30.75 20.0938 30.543L30.0938 24.0703C30.4766 23.832 30.6523 23.3672 30.5234 22.9375C30.3945 22.5078 29.9961 22.2148 29.5469 22.2227ZM32.9883 27.9883C32.582 27.9922 32.2188 28.2383 32.0625 28.6133C31.9102 28.9922 32 29.4219 32.293 29.707L33.5859 31L32.293 32.293C32.0312 32.543 31.9258 32.918 32.0195 33.2656C32.1094 33.6172 32.3828 33.8906 32.7344 33.9805C33.082 34.0742 33.457 33.9688 33.707 33.707L35 32.4141L36.293 33.707C36.543 33.9688 36.918 34.0742 37.2656 33.9805C37.6172 33.8906 37.8906 33.6172 37.9805 33.2656C38.0742 32.918 37.9688 32.543 37.707 32.293L36.4141 31L37.707 29.707C38.0039 29.418 38.0898 28.9805 37.9297 28.6016C37.7695 28.2187 37.3945 27.9766 36.9805 27.9883C36.7187 27.9961 36.4727 28.1055 36.293 28.293L35 29.5859L33.707 28.293C33.5195 28.0977 33.2617 27.9922 32.9883 27.9883ZM16 30C14.8945 30 14 30.8945 14 32C14 33.1055 14.8945 34 16 34C17.1055 34 18 33.1055 18 32C18 30.8945 17.1055 30 16 30ZM19.4492 33.6211C19.0234 33.6367 18.6562 33.9219 18.5312 34.3281C18.4102 34.7383 18.5586 35.1758 18.9023 35.4258L23.7227 39.043C24.0078 39.2695 24.3945 39.3242 24.7305 39.1836C25.0664 39.043 25.3008 38.7305 25.3398 38.3672C25.3828 38.0078 25.2188 37.6523 24.9219 37.4414L20.1055 33.8281C19.918 33.6836 19.6836 33.6094 19.4492 33.6211ZM28 39C26.8945 39 26 39.8945 26 41C26 42.1055 26.8945 43 28 43C29.1055 43 30 42.1055 30 41C30 39.8945 29.1055 39 28 39Z" fill="#5FCF6C"/>
</svg>
